<svg width="50" height="50" viewBox="0 0 50 50" fill="none" xmlns="http://www.w3.org/2000/svg">
<path d="M25 14.5833C23.8949 14.5833 22.8351 14.1443 22.0537 13.3629C21.2723 12.5815 20.8333 11.5217 20.8333 10.4167C20.8333 9.3116 21.2723 8.25179 22.0537 7.47039C22.8351 6.68899 23.8949 6.25 25 6.25C26.1051 6.25 27.1649 6.68899 27.9463 7.47039C28.7277 8.25179 29.1667 9.3116 29.1667 10.4167C29.1667 11.5217 28.7277 12.5815 27.9463 13.3629C27.1649 14.1443 26.1051 14.5833 25 14.5833ZM25 14.5833V22.9167M25 22.9167C26.6576 22.9167 28.2473 23.5751 29.4194 24.7472C30.5915 25.9194 31.25 27.5091 31.25 29.1667C31.25 30.8243 30.5915 32.414 29.4194 33.5861C28.2473 34.7582 26.6576 35.4167 25 35.4167C23.3424 35.4167 21.7527 34.7582 20.5806 33.5861C19.4085 32.414 18.75 30.8243 18.75 29.1667C18.75 27.5091 19.4085 25.9194 20.5806 24.7472C21.7527 23.5751 23.3424 22.9167 25 22.9167ZM13.9583 37.0833L19.7917 32.9167M36.0417 37.0833L30.2083 32.9167M6.25 39.5833C6.25 40.6884 6.68899 41.7482 7.47039 42.5296C8.25179 43.311 9.3116 43.75 10.4167 43.75C11.5217 43.75 12.5815 43.311 13.3629 42.5296C14.1443 41.7482 14.5833 40.6884 14.5833 39.5833C14.5833 38.4783 14.1443 37.4185 13.3629 36.6371C12.5815 35.8557 11.5217 35.4167 10.4167 35.4167C9.3116 35.4167 8.25179 35.8557 7.47039 36.6371C6.68899 37.4185 6.25 38.4783 6.25 39.5833ZM35.4167 39.5833C35.4167 40.6884 35.8557 41.7482 36.6371 42.5296C37.4185 43.311 38.4783 43.75 39.5833 43.75C40.6884 43.75 41.7482 43.311 42.5296 42.5296C43.311 41.7482 43.75 40.6884 43.75 39.5833C43.75 38.4783 43.311 37.4185 42.5296 36.6371C41.7482 35.8557 40.6884 35.4167 39.5833 35.4167C38.4783 35.4167 37.4185 35.8557 36.6371 36.6371C35.8557 37.4185 35.4167 38.4783 35.4167 39.5833Z" stroke="black" stroke-width="2" stroke-linecap="round" stroke-linejoin="round"/>
</svg>
