<svg width="47" height="47" viewBox="0 0 47 47" fill="none" xmlns="http://www.w3.org/2000/svg">
<path d="M43.3754 23.582C43.3754 21.9178 43.2376 20.7033 42.9394 19.4439H23.5476V26.9555H34.9302C34.7008 28.8222 33.4615 31.6334 30.7076 33.5225L30.669 33.774L36.8003 38.4288L37.2251 38.4704C41.1264 34.9394 43.3754 29.7442 43.3754 23.582" fill="#4285F4"/>
<path d="M23.5464 43.3734C29.1228 43.3734 33.8043 41.5741 37.2238 38.4706L30.7063 33.5226C28.9623 34.7146 26.6214 35.5467 23.5464 35.5467C18.0846 35.5467 13.4489 32.0159 11.7965 27.1355L11.5543 27.1557L5.17883 31.9911L5.09546 32.2182C8.49185 38.8303 15.4683 43.3734 23.5464 43.3734Z" fill="#34A853"/>
<path d="M11.7976 27.1357C11.3616 25.8762 11.1093 24.5267 11.1093 23.1324C11.1093 21.738 11.3616 20.3886 11.7747 19.1292L11.7631 18.861L5.3078 13.948L5.09659 14.0464C3.69677 16.7902 2.89355 19.8714 2.89355 23.1324C2.89355 26.3935 3.69677 29.4745 5.09659 32.2183L11.7976 27.1357" fill="#FBBC05"/>
<path d="M23.5465 10.718C27.4248 10.718 30.0409 12.3598 31.5326 13.7317L37.3616 8.1542C33.7817 4.89317 29.123 2.89156 23.5465 2.89156C15.4684 2.89156 8.49187 7.43448 5.09546 14.0465L11.7736 19.1293C13.449 14.249 18.0846 10.718 23.5465 10.718" fill="#EB4335"/>
</svg>
